<?xml version="1.0" encoding="UTF-8" standalone="no"?>
<svg width="10106px" height="5599px" viewBox="0 0 10106 5599" version="1.1" xmlns="http://www.w3.org/2000/svg" xmlns:xlink="http://www.w3.org/1999/xlink">
    <!-- Generator: Sketch 44 (41411) - http://www.bohemiancoding.com/sketch -->
    <title>particles</title>
    <desc>Created with Sketch.</desc>
    <defs></defs>
    <g id="Page-1" stroke="none" stroke-width="1" fill="none" fill-rule="evenodd">
        <g id="particles" fill-rule="nonzero" fill="#FFFFFF">
            <path d="M300,900 L400,900 L400,1100 L300,1100 L300,900 Z M300,1600 L400,1600 L400,1800 L300,1800 L300,1600 Z M400,1100 L500,1100 L500,1300 L400,1300 L400,1100 Z M400,1400 L500,1400 L500,1600 L400,1600 L400,1400 Z M200,1100 L300,1100 L300,1300 L200,1300 L200,1100 Z M200,1400 L300,1400 L300,1600 L200,1600 L200,1400 Z M-1.13686838e-13,1400 L-1.07563604e-13,1300 L200,1300 L200,1400 L-1.13686838e-13,1400 Z M500,1400 L500,1300 L700,1300 L700,1400 L500,1400 Z" id="Combined-Shape"></path>
            <path d="M1349,4249 L1449,4249 L1449,4449 L1349,4449 L1349,4249 Z M1349,4949 L1449,4949 L1449,5149 L1349,5149 L1349,4949 Z M1449,4449 L1549,4449 L1549,4649 L1449,4649 L1449,4449 Z M1449,4749 L1549,4749 L1549,4949 L1449,4949 L1449,4749 Z M1249,4449 L1349,4449 L1349,4649 L1249,4649 L1249,4449 Z M1249,4749 L1349,4749 L1349,4949 L1249,4949 L1249,4749 Z M1049,4749 L1049,4649 L1249,4649 L1249,4749 L1049,4749 Z M1549,4749 L1549,4649 L1749,4649 L1749,4749 L1549,4749 Z" id="Combined-Shape-Copy"></path>
            <path d="M3728,0 L3828,0 L3828,200 L3728,200 L3728,0 Z M3728,700 L3828,700 L3828,900 L3728,900 L3728,700 Z M3828,200 L3928,200 L3928,400 L3828,400 L3828,200 Z M3828,500 L3928,500 L3928,700 L3828,700 L3828,500 Z M3628,200 L3728,200 L3728,400 L3628,400 L3628,200 Z M3628,500 L3728,500 L3728,700 L3628,700 L3628,500 Z M3428,500 L3428,400 L3628,400 L3628,500 L3428,500 Z M3928,500 L3928,400 L4128,400 L4128,500 L3928,500 Z" id="Combined-Shape-Copy-2"></path>
            <path d="M4428,4699 L4528,4699 L4528,4899 L4428,4899 L4428,4699 Z M4428,5399 L4528,5399 L4528,5599 L4428,5599 L4428,5399 Z M4528,4899 L4628,4899 L4628,5099 L4528,5099 L4528,4899 Z M4528,5199 L4628,5199 L4628,5399 L4528,5399 L4528,5199 Z M4328,4899 L4428,4899 L4428,5099 L4328,5099 L4328,4899 Z M4328,5199 L4428,5199 L4428,5399 L4328,5399 L4328,5199 Z M4128,5199 L4128,5099 L4328,5099 L4328,5199 L4128,5199 Z M4628,5199 L4628,5099 L4828,5099 L4828,5199 L4628,5199 Z" id="Combined-Shape-Copy-4"></path>
            <path d="M5647,450 L5747,450 L5747,650 L5647,650 L5647,450 Z M5647,1150 L5747,1150 L5747,1350 L5647,1350 L5647,1150 Z M5747,650 L5847,650 L5847,850 L5747,850 L5747,650 Z M5747,950 L5847,950 L5847,1150 L5747,1150 L5747,950 Z M5547,650 L5647,650 L5647,850 L5547,850 L5547,650 Z M5547,950 L5647,950 L5647,1150 L5547,1150 L5547,950 Z M5347,950 L5347,850 L5547,850 L5547,950 L5347,950 Z M5847,950 L5847,850 L6047,850 L6047,950 L5847,950 Z" id="Combined-Shape-Copy-3"></path>
            <path d="M9706,900 L9806,900 L9806,1100 L9706,1100 L9706,900 Z M9706,1600 L9806,1600 L9806,1800 L9706,1800 L9706,1600 Z M9806,1100 L9906,1100 L9906,1300 L9806,1300 L9806,1100 Z M9806,1400 L9906,1400 L9906,1600 L9806,1600 L9806,1400 Z M9606,1100 L9706,1100 L9706,1300 L9606,1300 L9606,1100 Z M9606,1400 L9706,1400 L9706,1600 L9606,1600 L9606,1400 Z M9406,1400 L9406,1300 L9606,1300 L9606,1400 L9406,1400 Z M9906,1400 L9906,1300 L10106,1300 L10106,1400 L9906,1400 Z" id="Combined-Shape-Copy-5"></path>
            <path d="M7951,0 L8051,0 L8051,200 L7951,200 L7951,0 Z M7951,700 L8051,700 L8051,900 L7951,900 L7951,700 Z M8051,200 L8151,200 L8151,400 L8051,400 L8051,200 Z M8051,500 L8151,500 L8151,700 L8051,700 L8051,500 Z M7851,200 L7951,200 L7951,400 L7851,400 L7851,200 Z M7851,500 L7951,500 L7951,700 L7851,700 L7851,500 Z M7651,500 L7651,400 L7851,400 L7851,500 L7651,500 Z M8151,500 L8151,400 L8351,400 L8351,500 L8151,500 Z" id="Combined-Shape-Copy-6"></path>
            <path d="M9706,4249 L9806,4249 L9806,4449 L9706,4449 L9706,4249 Z M9706,4949 L9806,4949 L9806,5149 L9706,5149 L9706,4949 Z M9806,4449 L9906,4449 L9906,4649 L9806,4649 L9806,4449 Z M9806,4749 L9906,4749 L9906,4949 L9806,4949 L9806,4749 Z M9606,4449 L9706,4449 L9706,4649 L9606,4649 L9606,4449 Z M9606,4749 L9706,4749 L9706,4949 L9606,4949 L9606,4749 Z M9406,4749 L9406,4649 L9606,4649 L9606,4749 L9406,4749 Z M9906,4749 L9906,4649 L10106,4649 L10106,4749 L9906,4749 Z" id="Combined-Shape-Copy-8"></path>
            <path d="M7251,4249 L7351,4249 L7351,4449 L7251,4449 L7251,4249 Z M7251,4949 L7351,4949 L7351,5149 L7251,5149 L7251,4949 Z M7351,4449 L7451,4449 L7451,4649 L7351,4649 L7351,4449 Z M7351,4749 L7451,4749 L7451,4949 L7351,4949 L7351,4749 Z M7151,4449 L7251,4449 L7251,4649 L7151,4649 L7151,4449 Z M7151,4749 L7251,4749 L7251,4949 L7151,4949 L7151,4749 Z M6951,4749 L6951,4649 L7151,4649 L7151,4749 L6951,4749 Z M7451,4749 L7451,4649 L7651,4649 L7651,4749 L7451,4749 Z" id="Combined-Shape-Copy-9"></path>
        </g>
    </g>
</svg>