<?xml version="1.0" encoding="UTF-8" standalone="no"?>
<svg width="24px" height="24px" viewBox="0 0 24 24" version="1.1" xmlns="http://www.w3.org/2000/svg" xmlns:xlink="http://www.w3.org/1999/xlink">
    <!-- Generator: Sketch 44 (41411) - http://www.bohemiancoding.com/sketch -->
    <title>Shape</title>
    <desc>Created with Sketch.</desc>
    <defs></defs>
    <g id="Page-1" stroke="none" stroke-width="1" fill="none" fill-rule="evenodd">
        <g id="ic_volume_up_black_24px">
            <path d="M2,9 L2,15 L6,15 L11,20 L11,4 L6,9 L2,9 Z M15.5,12 C15.5,10.23 14.48,8.71 13,7.97 L13,16.02 C14.48,15.29 15.5,13.77 15.5,12 Z M13,3.23 L13,5.29 C15.89,6.15 18,8.83 18,12 C18,15.17 15.89,17.85 13,18.71 L13,20.77 C17.01,19.86 20,16.28 20,12 C20,7.72 17.01,4.14 13,3.23 Z" id="Shape" fill="#FFFFFF" fill-rule="nonzero"></path>
            <polygon id="Shape" points="0 0 24 0 24 24 0 24"></polygon>
        </g>
    </g>
</svg>